<svg xmlns="http://www.w3.org/2000/svg" version="1.1" xmlns:xlink="http://www.w3.org/1999/xlink" xmlns:svgjs="http://svgjs.dev/svgjs" width="100%" height="100%" viewBox="0 0 1000 600"><rect width="1000" height="600" x="0" y="0" fill="white"/><g><circle r="166.66666666666666" cx="341.5928599039714" cy="363.81508723267916" fill="Black" transform="matrix(0.7145871142636891,0,0,0.714587114263689,0,40.022430503504765)"/><path d="M277.7539517502169 438.8150780091392L277.7539517502169 438.8150780091392Q262.14103899785886 438.8150780091392 253.51484164518286 432.2823729964402Q244.88864429250685 425.7244451844643 241.5340119886884 414.65163630193564Q238.17937968486996 403.5788274194071 238.17937968486996 389.95851580991865L238.17937968486996 389.95851580991865L238.17937968486996 338.02477209892476Q238.17937968486996 323.118097726318 241.5340119886884 312.04528884378936Q244.88864429250685 300.9724799612609 253.51484164518286 294.89378533554475Q262.14103899785886 288.8150907098286 277.7539517502169 288.8150907098286L277.7539517502169 288.8150907098286Q291.5508229546432 288.8150907098286 299.64734152250577 293.88487336447145Q307.7186372910915 298.9798788183913 311.2750519891246 308.4132057479259Q314.80624388788084 317.8717554767373 314.80624388788084 331.1137250970732L314.80624388788084 331.1137250970732L314.80624388788084 342.74143556369205L295.3846884447214 342.74143556369205L295.3846884447214 332.4000878601916Q295.3846884447214 324.22790089449853 294.552336068586 317.94742387456773Q293.7452064917274 311.6921696539138 290.11312339586385 308.236646152988Q286.4810403000003 304.7811226520622 277.93051134515474 304.7811226520622L277.93051134515474 304.7811226520622Q269.22864559464824 304.7811226520622 265.2182205096322 308.51409694503315Q261.233018223893 312.22184843872725 260.047546657882 319.0320042434715Q258.86207509187096 325.8421600482157 258.86207509187096 334.92236778787463L258.86207509187096 334.92236778787463L258.86207509187096 393.23747971590666Q258.86207509187096 404.3102885984352 260.67811663980274 410.742102414027Q262.4941581877345 417.19913902889556 266.6811428676884 419.92320135079325Q270.86812754764225 422.64726367269094 277.93051134515474 422.64726367269094L277.93051134515474 422.64726367269094Q286.3044807050624 422.64726367269094 289.9365638009261 418.91428937972006Q293.56864689678963 415.20653788602596 294.4766676707555 408.67383287332683Q295.3846884447214 402.11590506135093 295.3846884447214 393.41403931084443L295.3846884447214 393.41403931084443L295.3846884447214 382.51779002325367L314.80624388788084 382.51779002325367L314.80624388788084 393.41403931084443Q314.80624388788084 406.8577913253951 311.5272799818929 417.0982478317882Q308.27353887518177 427.36392713745823 300.2779115044265 433.0895025732987Q292.2822841336713 438.8150780091392 277.7539517502169 438.8150780091392ZM345.6789502027213 437.17559605614525L326.4339543544997 437.17559605614525L357.6597798592158 290.0762306736701L377.45967729152767 290.0762306736701L408.8872851904584 437.17559605614525L389.4405069480221 437.17559605614525L382.7312423403852 400.1233039184813L352.7665567995107 400.1233039184813L345.6789502027213 437.17559605614525ZM367.64800837284065 319.1328954405788L355.4906191214084 385.41841194008924L380.00718001848753 385.41841194008924L367.64800837284065 319.1328954405788ZM445.0063337548796 437.17559605614525L424.8533171326921 437.17559605614525L424.8533171326921 290.0762306736701L445.0063337548796 290.0762306736701L445.0063337548796 437.17559605614525Z " fill="White" transform="matrix(0.7145871142636891,0,0,0.714587114263689,0,40.022430503504765)"/><path d="M631.1674267868381 438.8150780091392L631.1674267868381 438.8150780091392Q615.5545140344801 438.8150780091392 606.9283166818041 432.2823729964402Q598.302119329128 425.7244451844643 594.9474870253097 414.65163630193564Q591.5928547214911 403.5788274194071 591.5928547214911 389.95851580991865L591.5928547214911 389.95851580991865L591.5928547214911 338.02477209892476Q591.5928547214911 323.118097726318 594.9474870253097 312.04528884378936Q598.302119329128 300.9724799612609 606.9283166818041 294.89378533554475Q615.5545140344801 288.8150907098286 631.1674267868381 288.8150907098286L631.1674267868381 288.8150907098286Q644.9642979912644 288.8150907098286 653.0608165591269 293.88487336447145Q661.1321123277127 298.9798788183913 664.6885270257458 308.4132057479259Q668.219718924502 317.8717554767373 668.219718924502 331.1137250970732L668.219718924502 331.1137250970732L668.219718924502 342.74143556369205L648.7981634813426 342.74143556369205L648.7981634813426 332.4000878601916Q648.7981634813426 324.22790089449853 647.9658111052072 317.94742387456773Q647.1586815283487 311.6921696539138 643.526598432485 308.236646152988Q639.8945153366215 304.7811226520622 631.343986381776 304.7811226520622L631.343986381776 304.7811226520622Q622.6421206312694 304.7811226520622 618.6316955462534 308.51409694503315Q614.6464932605141 312.22184843872725 613.4610216945031 319.0320042434715Q612.2755501284921 325.8421600482157 612.2755501284921 334.92236778787463L612.2755501284921 334.92236778787463L612.2755501284921 393.23747971590666Q612.2755501284921 404.3102885984352 614.091591676424 410.742102414027Q615.9076332243557 417.19913902889556 620.0946179043095 419.92320135079325Q624.2816025842634 422.64726367269094 631.343986381776 422.64726367269094L631.343986381776 422.64726367269094Q639.7179557416836 422.64726367269094 643.3500388375472 418.91428937972006Q646.9821219334108 415.20653788602596 647.8901427073766 408.67383287332683Q648.7981634813426 402.11590506135093 648.7981634813426 393.41403931084443L648.7981634813426 393.41403931084443L648.7981634813426 382.51779002325367L668.219718924502 382.51779002325367L668.219718924502 393.41403931084443Q668.219718924502 406.8577913253951 664.9407550185141 417.0982478317882Q661.687013911803 427.36392713745823 653.6913865410477 433.0895025732987Q645.6957591702925 438.8150780091392 631.1674267868381 438.8150780091392ZM706.1800318361319 437.17559605614525L686.7332535936956 437.17559605614525L686.7332535936956 332.19830546597694L706.1800318361319 332.19830546597694L706.1800318361319 347.1049798385837Q711.9812756698028 337.46987051483455 717.8077423027507 334.2161294081233Q723.6089861364218 330.93716550213543 729.4102299700927 330.93716550213543L729.4102299700927 330.93716550213543Q730.1416911491208 330.93716550213543 730.7722611310415 330.93716550213543Q731.4280539122391 330.93716550213543 732.5126342811428 331.1137250970732L732.5126342811428 331.1137250970732L732.5126342811428 352.55310448237907Q730.3182507440587 351.6450837084132 727.5185200243304 351.01451372649245Q724.6935665053254 350.3587209452948 721.79294458849 350.3587209452948L721.79294458849 350.3587209452948Q717.2528407186604 350.3587209452948 713.5198664256895 352.45221328527174Q709.8121149319954 354.5457056252487 706.1800318361319 360.54873185313437L706.1800318361319 360.54873185313437L706.1800318361319 437.17559605614525ZM758.668677131216 438.6385184142014L758.668677131216 438.6385184142014Q752.4890913083926 438.6385184142014 747.7724278436252 435.0821037161683Q743.0305415795812 431.5509118174121 740.3064792576835 426.0018959765094Q737.5824169357858 420.47810293488357 737.5824169357858 414.2985171120601L737.5824169357858 414.2985171120601Q737.5824169357858 404.48684819337296 740.8613808417738 397.77758358573607Q744.1403447477617 391.0430961788224 749.8406973843254 386.42732391116243Q755.5662728201659 381.7863288442256 763.1078898039382 378.3308053432998Q770.6495067877105 374.875281842374 778.9982533483413 371.6215407356629L778.9982533483413 371.6215407356629L778.9982533483413 364.1808149489979Q778.9982533483413 357.8246695312367 778.2667921693132 353.6376848512828Q777.5353309902853 349.45070017132895 775.2652790553705 347.3824306306289Q772.9952271204558 345.28893829065197 768.4551232506262 345.28893829065197L768.4551232506262 345.28893829065197Q764.469920964887 345.28893829065197 762.0233094350345 347.1049798385837Q759.576697905182 348.9210213865155 758.4668947370013 352.27565369033397Q757.3823143680977 355.6302859941524 757.3823143680977 360.17038986398194L757.3823143680977 360.17038986398194L757.3823143680977 365.44195491283944L738.1373185198761 364.71049373381135Q738.4904377097517 347.2815394335216 746.1329458906313 339.00846127072117Q753.7502312722341 330.76060590719766 769.7414860137446 330.76060590719766L769.7414860137446 330.76060590719766Q785.3543987661027 330.76060590719766 791.8871037788017 339.2859120627663Q798.4198087915008 347.8364410176118 798.4198087915008 363.97903255478326L798.4198087915008 363.97903255478326L798.4198087915008 411.92757398003795Q798.4198087915008 416.8460198390199 798.6972595835459 421.3861237088494Q798.9747103755911 425.92622757867883 799.428720762574 429.8105386673108Q799.882731149557 433.7200725552195 800.2358503394327 437.17559605614525L800.2358503394327 437.17559605614525L782.4537768492671 437.17559605614525Q781.8988752651768 434.2749741393098 781.0917456883183 429.8105386673108Q780.2593933121829 425.37132599458863 779.9062741223073 421.7392428987251L779.9062741223073 421.7392428987251Q778.0902325743755 427.91882872154855 772.9195587226252 433.2660621682366Q767.748884870875 438.6385184142014 758.668677131216 438.6385184142014ZM766.2859625128189 421.91580249366285L766.2859625128189 421.91580249366285Q769.1865844296543 421.91580249366285 771.7340871566142 420.2763205406689Q774.2815898835742 418.66206138695173 776.2741910264436 416.5685690469748Q778.2667921693132 414.47507670699787 778.9982533483413 413.21393674315635L778.9982533483413 413.21393674315635L778.9982533483413 383.4258107972195Q774.4581494785119 385.97331352417945 770.4729471927727 388.4955934518625Q766.4625221077566 391.0430961788224 763.4610089938138 393.8680496978274Q760.4847186791478 396.66778041755555 758.7443455290465 400.22419511558866Q757.029195178222 403.7553870143449 757.029195178222 408.2954908841744L757.029195178222 408.2954908841744Q757.029195178222 414.65163630193564 759.3749155109673 418.2837193977993Q761.7458586429893 421.91580249366285 766.2859625128189 421.91580249366285ZM845.8386714319421 438.6385184142014L845.8386714319421 438.6385184142014Q832.9245982022048 438.6385184142014 826.3162247916753 433.4426217631744Q819.6826285818689 428.2719479114241 817.4125766469541 418.8386209818895Q815.1425247120394 409.38007125307814 815.1425247120394 396.8695628117702L815.1425247120394 396.8695628117702L815.1425247120394 372.70612110456665Q815.1425247120394 359.43892868495385 817.4882450447847 350.1064929525266Q819.8591881768067 340.74883442082245 826.4927843866132 335.75472016401005Q833.1263805964195 330.76060590719766 845.8386714319421 330.76060590719766L845.8386714319421 330.76060590719766Q857.2645995043463 330.76060590719766 863.5450765242771 334.46835740089165Q869.800330744931 338.2013316938625 872.171273876953 345.56638908269707Q874.5169942096983 352.9062236722547 874.5169942096983 363.8024729598455L874.5169942096983 363.8024729598455L874.5169942096983 369.98205878266896L856.9114803144706 369.98205878266896L856.9114803144706 363.6259133649077Q856.9114803144706 356.71486636305616 856.0034595405048 352.72966407731695Q855.0954387665389 348.74446179157775 852.7244956345168 346.9284202436459Q850.3787753017715 345.1123786957141 846.0152310268799 345.1123786957141L846.0152310268799 345.1123786957141Q841.2985675621126 345.1123786957141 838.7510648351528 347.2815394335216Q836.2035621081928 349.45070017132895 835.3964325313342 354.646596822356Q834.5640801551989 359.8172706741063 834.5640801551989 368.72091881882744L834.5640801551989 368.72091881882744L834.5640801551989 401.7627858714753Q834.5640801551989 415.20653788602596 837.1115828821587 419.7466417558555Q839.6590856091186 424.2867456256849 846.1917906218177 424.2867456256849L846.1917906218177 424.2867456256849Q851.0850136815228 424.2867456256849 853.3550656164375 422.0166936907702Q855.6251175513522 419.7466417558555 856.2809103325499 415.5596570759016Q856.9114803144706 411.3978951952245 856.9114803144706 406.126330146367L856.9114803144706 406.126330146367L856.9114803144706 397.5758011915214L874.5169942096983 397.5758011915214L874.5169942096983 404.8399673832486Q874.5169942096983 415.3830974809637 872.0703826798457 423.0003828625666Q869.6237711499931 430.6428910434461 863.3432941300624 434.62809332918545Q857.0880399094084 438.6385184142014 845.8386714319421 438.6385184142014ZM911.5692863473622 436.9990364612075L892.1477309042028 436.9990364612075L892.1477309042028 289.89967107873224L911.5692863473622 289.89967107873224L911.5692863473622 377.5993441642717L939.8944899352429 332.19830546597694L960.249288951645 332.19830546597694L935.5309456603511 373.26102268865685L959.5178277726169 437.17559605614525L940.0710495301806 437.17559605614525L920.4729344920834 383.4258107972195L911.5692863473622 396.8695628117702L911.5692863473622 436.9990364612075ZM992.5596948252648 437.17559605614525L972.4066782030773 437.17559605614525L972.4066782030773 290.0762306736701L992.5596948252648 290.0762306736701L992.5596948252648 437.17559605614525ZM1042.677396988327 438.6385184142014L1042.677396988327 438.6385184142014Q1034.505210022634 438.6385184142014 1029.5110957658212 435.5361141031513Q1024.516981509009 432.45893259137796 1022.2469295740942 426.8342483526448Q1019.9768776391795 421.18434131463476 1019.9768776391795 413.567055933032L1019.9768776391795 413.567055933032L1019.9768776391795 345.1123786957141L1008.9040687566509 345.1123786957141L1008.9040687566509 332.19830546597694L1019.9768776391795 332.19830546597694L1019.9768776391795 301.5273815453511L1039.4236558816156 301.5273815453511L1039.4236558816156 332.19830546597694L1056.2977085978155 332.19830546597694L1056.2977085978155 345.1123786957141L1039.4236558816156 345.1123786957141L1039.4236558816156 412.3059159691905Q1039.4236558816156 418.4602789927371 1041.4162570244853 421.1086729168043Q1043.408858167355 423.7318440415947 1049.0335424060881 423.7318440415947L1049.0335424060881 423.7318440415947Q1050.496464764144 423.7318440415947 1052.4133975091836 423.5552844466568Q1054.3051074549458 423.378724851719 1056.1211490028777 423.20216525678126L1056.1211490028777 423.20216525678126L1056.1211490028777 437.5287152460209Q1052.4890659070138 438.0836168301111 1049.4118843952406 438.3610676221563Q1046.3094800841905 438.6385184142014 1042.677396988327 438.6385184142014ZM1125.1307278242857 437.17559605614525L1105.885731976064 437.17559605614525L1137.11155748078 290.0762306736701L1156.9114549130918 290.0762306736701L1188.3390628120228 437.17559605614525L1168.8922845695865 437.17559605614525L1162.1830199619494 400.1233039184813L1132.2183344210748 400.1233039184813L1125.1307278242857 437.17559605614525ZM1147.099785994405 319.1328954405788L1134.9423967429725 385.41841194008924L1159.4589576400517 385.41841194008924L1147.099785994405 319.1328954405788ZM1224.4833341757208 437.17559605614525L1204.3050947542565 437.17559605614525L1204.3050947542565 290.0762306736701L1224.4833341757208 290.0762306736701L1224.4833341757208 437.17559605614525Z " fill="Black" transform="matrix(0.7145871142636891,0,0,0.714587114263689,0,40.022430503504765)"/></g></svg>